<mxfile host="Electron" modified="2023-12-30T05:17:06.432Z" agent="Mozilla/5.0 (Windows NT 10.0; Win64; x64) AppleWebKit/537.36 (KHTML, like Gecko) draw.io/22.1.11 Chrome/114.0.5735.289 Electron/25.9.8 Safari/537.36" etag="pGKc0Rlrj6Mbw0I6LYGd" version="22.1.11" type="device">
  <diagram name="Страница — 1" id="0qMLu-xBW1Rm1Y-x4M_M">
    <mxGraphModel dx="1410" dy="828" grid="1" gridSize="10" guides="1" tooltips="1" connect="1" arrows="1" fold="1" page="1" pageScale="1" pageWidth="3300" pageHeight="2339" math="0" shadow="0">
      <root>
        <mxCell id="0" />
        <mxCell id="1" parent="0" />
        <mxCell id="_aaC7rVK04lNIlgJAhn6-1" value="" style="rounded=0;whiteSpace=wrap;html=1;labelBackgroundColor=none;fontFamily=GOST type B;fontStyle=2" parent="1" vertex="1">
          <mxGeometry x="2218" y="408" width="510" height="270" as="geometry" />
        </mxCell>
        <mxCell id="_aaC7rVK04lNIlgJAhn6-2" value="Организация взаимодействия пользователей&amp;nbsp;" style="text;html=1;strokeColor=none;fillColor=none;align=center;verticalAlign=middle;whiteSpace=wrap;rounded=0;fontSize=35;fontFamily=GOST type B;labelBackgroundColor=none;fontStyle=2" parent="1" vertex="1">
          <mxGeometry x="2308" y="443" width="330" height="200" as="geometry" />
        </mxCell>
        <mxCell id="_aaC7rVK04lNIlgJAhn6-5" value="Правила деловой переписки" style="text;html=1;strokeColor=none;fillColor=none;align=center;verticalAlign=middle;whiteSpace=wrap;rounded=0;fontSize=30;labelBackgroundColor=none;fontFamily=GOST type B;fontStyle=2" parent="1" vertex="1">
          <mxGeometry x="2224" y="98" width="170" height="110" as="geometry" />
        </mxCell>
        <mxCell id="_aaC7rVK04lNIlgJAhn6-7" value="Информация для пользователя" style="text;html=1;strokeColor=none;fillColor=none;align=center;verticalAlign=middle;whiteSpace=wrap;rounded=0;fontSize=30;labelBackgroundColor=none;fontFamily=GOST type B;fontStyle=2" parent="1" vertex="1">
          <mxGeometry x="1868" y="420.5" width="280" height="35" as="geometry" />
        </mxCell>
        <mxCell id="_aaC7rVK04lNIlgJAhn6-9" value="Вопросы пользователя" style="text;html=1;strokeColor=none;fillColor=none;align=center;verticalAlign=middle;whiteSpace=wrap;rounded=0;fontSize=30;labelBackgroundColor=none;fontFamily=GOST type B;fontStyle=2" parent="1" vertex="1">
          <mxGeometry x="1978" y="598" width="60" height="30" as="geometry" />
        </mxCell>
        <mxCell id="_aaC7rVK04lNIlgJAhn6-13" value="Пользователь" style="text;html=1;strokeColor=none;fillColor=none;align=center;verticalAlign=middle;whiteSpace=wrap;rounded=0;fontSize=30;labelBackgroundColor=none;fontFamily=GOST type B;fontStyle=2" parent="1" vertex="1">
          <mxGeometry x="2352" y="908" width="60" height="30" as="geometry" />
        </mxCell>
        <mxCell id="_aaC7rVK04lNIlgJAhn6-19" value="Принятие решений" style="text;html=1;strokeColor=none;fillColor=none;align=center;verticalAlign=middle;whiteSpace=wrap;rounded=0;fontSize=30;labelBackgroundColor=none;fontFamily=GOST type B;fontStyle=2" parent="1" vertex="1">
          <mxGeometry x="2788" y="613" width="270" height="30" as="geometry" />
        </mxCell>
        <mxCell id="_aaC7rVK04lNIlgJAhn6-23" value="Информирование пользователя" style="text;html=1;strokeColor=none;fillColor=none;align=center;verticalAlign=middle;whiteSpace=wrap;rounded=0;fontSize=30;labelBackgroundColor=none;fontFamily=GOST type B;fontStyle=2" parent="1" vertex="1">
          <mxGeometry x="2788" y="498" width="270" height="30" as="geometry" />
        </mxCell>
        <mxCell id="_aaC7rVK04lNIlgJAhn6-30" value="Трудовой кодекс РБ" style="text;html=1;strokeColor=none;fillColor=none;align=center;verticalAlign=middle;whiteSpace=wrap;rounded=0;fontSize=30;labelBackgroundColor=none;fontFamily=GOST type B;fontStyle=2" parent="1" vertex="1">
          <mxGeometry x="2418" y="118" width="150" height="90" as="geometry" />
        </mxCell>
        <mxCell id="_aaC7rVK04lNIlgJAhn6-32" value="" style="rounded=0;whiteSpace=wrap;html=1;labelBackgroundColor=none;fontFamily=GOST type B;fontStyle=2" parent="1" vertex="1">
          <mxGeometry x="552" y="729" width="400" height="250" as="geometry" />
        </mxCell>
        <mxCell id="_aaC7rVK04lNIlgJAhn6-34" value="Получить и обработать&amp;nbsp; информацию" style="text;html=1;strokeColor=none;fillColor=none;align=center;verticalAlign=middle;whiteSpace=wrap;rounded=0;fontSize=30;labelBackgroundColor=none;fontFamily=GOST type B;fontStyle=2" parent="1" vertex="1">
          <mxGeometry x="647" y="799" width="210" height="110" as="geometry" />
        </mxCell>
        <mxCell id="_aaC7rVK04lNIlgJAhn6-40" value="Информация для пользователя" style="text;html=1;strokeColor=none;fillColor=none;align=center;verticalAlign=middle;whiteSpace=wrap;rounded=0;fontSize=30;labelBackgroundColor=none;fontFamily=GOST type B;fontStyle=2" parent="1" vertex="1">
          <mxGeometry x="292" y="719" width="270" height="130" as="geometry" />
        </mxCell>
        <mxCell id="_aaC7rVK04lNIlgJAhn6-44" value="&lt;span style=&quot;font-size: 30px;&quot;&gt;Вопросы пользователя&lt;/span&gt;" style="text;html=1;strokeColor=none;fillColor=none;align=center;verticalAlign=middle;whiteSpace=wrap;rounded=0;labelBackgroundColor=none;fontFamily=GOST type B;fontStyle=2" parent="1" vertex="1">
          <mxGeometry x="317" y="874" width="220" height="80" as="geometry" />
        </mxCell>
        <mxCell id="_aaC7rVK04lNIlgJAhn6-45" value="" style="rounded=0;whiteSpace=wrap;html=1;labelBackgroundColor=none;fontFamily=GOST type B;fontStyle=2" parent="1" vertex="1">
          <mxGeometry x="1397" y="1081" width="380" height="230" as="geometry" />
        </mxCell>
        <mxCell id="_aaC7rVK04lNIlgJAhn6-46" value="&lt;span style=&quot;font-size: 30px;&quot;&gt;Написать и отправить сообщение в рабочий чат&lt;/span&gt;" style="text;html=1;strokeColor=none;fillColor=none;align=center;verticalAlign=middle;whiteSpace=wrap;rounded=0;labelBackgroundColor=none;fontFamily=GOST type B;fontStyle=2" parent="1" vertex="1">
          <mxGeometry x="1477" y="1121" width="220" height="160" as="geometry" />
        </mxCell>
        <mxCell id="_aaC7rVK04lNIlgJAhn6-49" value="&lt;font style=&quot;font-size: 30px;&quot;&gt;Трудовой кодекс РБ&lt;/font&gt;" style="text;html=1;strokeColor=none;fillColor=none;align=center;verticalAlign=middle;whiteSpace=wrap;rounded=0;labelBackgroundColor=none;fontFamily=GOST type B;fontStyle=2" parent="1" vertex="1">
          <mxGeometry x="657" y="417" width="200" height="120" as="geometry" />
        </mxCell>
        <mxCell id="_aaC7rVK04lNIlgJAhn6-51" value="&lt;font style=&quot;font-size: 30px;&quot;&gt;Правила деловой переписки&lt;/font&gt;" style="text;html=1;strokeColor=none;fillColor=none;align=center;verticalAlign=middle;whiteSpace=wrap;rounded=0;labelBackgroundColor=none;fontFamily=GOST type B;fontStyle=2" parent="1" vertex="1">
          <mxGeometry x="1452" y="350" width="190" height="120" as="geometry" />
        </mxCell>
        <mxCell id="_aaC7rVK04lNIlgJAhn6-53" value="" style="endArrow=none;html=1;rounded=0;labelBackgroundColor=none;fontColor=default;fontFamily=GOST type B;fontStyle=2" parent="1" edge="1">
          <mxGeometry width="50" height="50" relative="1" as="geometry">
            <mxPoint x="862" y="610" as="sourcePoint" />
            <mxPoint x="1552" y="610" as="targetPoint" />
          </mxGeometry>
        </mxCell>
        <mxCell id="_aaC7rVK04lNIlgJAhn6-55" value="&lt;font style=&quot;font-size: 30px;&quot;&gt;Информационное сообщение&lt;/font&gt;" style="text;html=1;strokeColor=none;fillColor=none;align=center;verticalAlign=middle;whiteSpace=wrap;rounded=0;labelBackgroundColor=none;fontFamily=GOST type B;fontStyle=2" parent="1" vertex="1">
          <mxGeometry x="980" y="709" width="260" height="90" as="geometry" />
        </mxCell>
        <mxCell id="_aaC7rVK04lNIlgJAhn6-59" value="" style="rounded=0;whiteSpace=wrap;html=1;labelBackgroundColor=none;fontFamily=GOST type B;fontStyle=2" parent="1" vertex="1">
          <mxGeometry x="2354" y="1379" width="350" height="200" as="geometry" />
        </mxCell>
        <mxCell id="_aaC7rVK04lNIlgJAhn6-60" value="&lt;font style=&quot;font-size: 30px;&quot;&gt;Прочитать сообщение&lt;/font&gt;" style="text;html=1;strokeColor=none;fillColor=none;align=center;verticalAlign=middle;whiteSpace=wrap;rounded=0;labelBackgroundColor=none;fontFamily=GOST type B;fontStyle=2" parent="1" vertex="1">
          <mxGeometry x="2439" y="1444" width="180" height="70" as="geometry" />
        </mxCell>
        <mxCell id="_aaC7rVK04lNIlgJAhn6-61" value="&lt;span style=&quot;font-size: 30px;&quot;&gt;Информационные сообщения&lt;/span&gt;" style="text;html=1;strokeColor=none;fillColor=none;align=center;verticalAlign=middle;whiteSpace=wrap;rounded=0;labelBackgroundColor=none;fontFamily=GOST type B;fontStyle=2" parent="1" vertex="1">
          <mxGeometry x="1807" y="1037" width="230" height="80" as="geometry" />
        </mxCell>
        <mxCell id="_aaC7rVK04lNIlgJAhn6-66" value="&lt;span style=&quot;font-size: 30px;&quot;&gt;Информирование пользователя&lt;/span&gt;" style="text;html=1;strokeColor=none;fillColor=none;align=center;verticalAlign=middle;whiteSpace=wrap;rounded=0;labelBackgroundColor=none;fontFamily=GOST type B;fontStyle=2" parent="1" vertex="1">
          <mxGeometry x="2753" y="1361" width="240" height="135" as="geometry" />
        </mxCell>
        <mxCell id="_aaC7rVK04lNIlgJAhn6-71" value="&lt;font style=&quot;font-size: 30px;&quot;&gt;Ответы на вопросы&lt;/font&gt;" style="text;html=1;strokeColor=none;fillColor=none;align=center;verticalAlign=middle;whiteSpace=wrap;rounded=0;labelBackgroundColor=none;fontFamily=GOST type B;fontStyle=2" parent="1" vertex="1">
          <mxGeometry x="2057" y="1474" width="230" height="6" as="geometry" />
        </mxCell>
        <mxCell id="_aaC7rVK04lNIlgJAhn6-75" value="" style="endArrow=none;html=1;rounded=0;labelBackgroundColor=none;fontColor=default;fontFamily=GOST type B;fontStyle=2" parent="1" edge="1">
          <mxGeometry width="50" height="50" relative="1" as="geometry">
            <mxPoint x="2020" y="1564" as="sourcePoint" />
            <mxPoint x="2020" y="1260" as="targetPoint" />
          </mxGeometry>
        </mxCell>
        <mxCell id="_aaC7rVK04lNIlgJAhn6-77" value="" style="endArrow=none;html=1;rounded=0;labelBackgroundColor=none;fontColor=default;fontFamily=GOST type B;fontStyle=2" parent="1" edge="1">
          <mxGeometry width="50" height="50" relative="1" as="geometry">
            <mxPoint x="1777" y="1260" as="sourcePoint" />
            <mxPoint x="2020" y="1260" as="targetPoint" />
          </mxGeometry>
        </mxCell>
        <mxCell id="_aaC7rVK04lNIlgJAhn6-83" value="" style="endArrow=none;html=1;rounded=0;labelBackgroundColor=none;fontColor=default;fontFamily=GOST type B;fontStyle=2" parent="1" edge="1">
          <mxGeometry width="50" height="50" relative="1" as="geometry">
            <mxPoint x="770" y="1884" as="sourcePoint" />
            <mxPoint x="2494" y="1884" as="targetPoint" />
          </mxGeometry>
        </mxCell>
        <mxCell id="_aaC7rVK04lNIlgJAhn6-85" value="" style="endArrow=none;html=1;rounded=0;labelBackgroundColor=none;fontColor=default;fontFamily=GOST type B;fontStyle=2" parent="1" edge="1">
          <mxGeometry width="50" height="50" relative="1" as="geometry">
            <mxPoint x="660" y="2014" as="sourcePoint" />
            <mxPoint x="2554" y="2014" as="targetPoint" />
          </mxGeometry>
        </mxCell>
        <mxCell id="_aaC7rVK04lNIlgJAhn6-89" value="&lt;font style=&quot;font-size: 30px;&quot;&gt;Принятие решений&lt;/font&gt;" style="text;html=1;strokeColor=none;fillColor=none;align=center;verticalAlign=middle;whiteSpace=wrap;rounded=0;labelBackgroundColor=none;fontFamily=GOST type B;fontStyle=2" parent="1" vertex="1">
          <mxGeometry x="2704" y="1484" width="320" height="85" as="geometry" />
        </mxCell>
        <mxCell id="_aaC7rVK04lNIlgJAhn6-92" value="&lt;font style=&quot;font-size: 20px;&quot;&gt;0&lt;/font&gt;" style="text;html=1;strokeColor=none;fillColor=none;align=center;verticalAlign=middle;whiteSpace=wrap;rounded=0;labelBackgroundColor=none;fontFamily=GOST type B;fontStyle=2" parent="1" vertex="1">
          <mxGeometry x="2668" y="643" width="60" height="30" as="geometry" />
        </mxCell>
        <mxCell id="_aaC7rVK04lNIlgJAhn6-93" value="&lt;font style=&quot;font-size: 20px;&quot;&gt;1&lt;/font&gt;" style="text;html=1;strokeColor=none;fillColor=none;align=center;verticalAlign=middle;whiteSpace=wrap;rounded=0;labelBackgroundColor=none;fontFamily=GOST type B;fontStyle=2" parent="1" vertex="1">
          <mxGeometry x="902" y="944" width="60" height="30" as="geometry" />
        </mxCell>
        <mxCell id="_aaC7rVK04lNIlgJAhn6-95" value="&lt;font style=&quot;font-size: 20px;&quot;&gt;2&lt;/font&gt;" style="text;html=1;strokeColor=none;fillColor=none;align=center;verticalAlign=middle;whiteSpace=wrap;rounded=0;labelBackgroundColor=none;fontFamily=GOST type B;fontStyle=2" parent="1" vertex="1">
          <mxGeometry x="1732" y="1276" width="60" height="30" as="geometry" />
        </mxCell>
        <mxCell id="_aaC7rVK04lNIlgJAhn6-97" value="&lt;font style=&quot;font-size: 20px;&quot;&gt;3&lt;/font&gt;" style="text;html=1;strokeColor=none;fillColor=none;align=center;verticalAlign=middle;whiteSpace=wrap;rounded=0;labelBackgroundColor=none;fontFamily=GOST type B;fontStyle=2" parent="1" vertex="1">
          <mxGeometry x="2654" y="1549" width="60" height="30" as="geometry" />
        </mxCell>
        <mxCell id="_aaC7rVK04lNIlgJAhn6-99" value="&lt;font style=&quot;font-size: 30px;&quot;&gt;Программное средство&lt;/font&gt;" style="text;html=1;strokeColor=none;fillColor=none;align=center;verticalAlign=middle;whiteSpace=wrap;rounded=0;labelBackgroundColor=none;fontFamily=GOST type B;fontStyle=2" parent="1" vertex="1">
          <mxGeometry x="1587" y="1791" width="220" height="60" as="geometry" />
        </mxCell>
        <mxCell id="_aaC7rVK04lNIlgJAhn6-101" value="" style="endArrow=none;html=1;rounded=0;labelBackgroundColor=none;fontColor=default;fontFamily=GOST type B;fontStyle=2" parent="1" edge="1">
          <mxGeometry width="50" height="50" relative="1" as="geometry">
            <mxPoint x="1696" y="1710" as="sourcePoint" />
            <mxPoint x="2434" y="1710" as="targetPoint" />
          </mxGeometry>
        </mxCell>
        <mxCell id="_aaC7rVK04lNIlgJAhn6-105" value="&lt;font style=&quot;font-size: 30px;&quot;&gt;Программное средство&lt;/font&gt;" style="text;html=1;strokeColor=none;fillColor=none;align=center;verticalAlign=middle;whiteSpace=wrap;rounded=0;labelBackgroundColor=none;fontFamily=GOST type B;fontStyle=2" parent="1" vertex="1">
          <mxGeometry x="2518" y="908" width="220" height="60" as="geometry" />
        </mxCell>
        <mxCell id="_aaC7rVK04lNIlgJAhn6-106" value="" style="endArrow=open;endFill=1;endSize=12;html=1;rounded=0;fontSize=30;exitX=0;exitY=1;exitDx=0;exitDy=0;labelBackgroundColor=none;fontColor=default;fontFamily=GOST type B;fontStyle=2" parent="1" source="_aaC7rVK04lNIlgJAhn6-44" edge="1">
          <mxGeometry width="160" relative="1" as="geometry">
            <mxPoint x="412" y="954" as="sourcePoint" />
            <mxPoint x="552" y="954" as="targetPoint" />
          </mxGeometry>
        </mxCell>
        <mxCell id="_aaC7rVK04lNIlgJAhn6-107" value="" style="endArrow=open;endFill=1;endSize=12;html=1;rounded=0;fontSize=30;exitX=0;exitY=1;exitDx=0;exitDy=0;labelBackgroundColor=none;fontColor=default;fontFamily=GOST type B;fontStyle=2" parent="1" edge="1">
          <mxGeometry width="160" relative="1" as="geometry">
            <mxPoint x="317" y="824" as="sourcePoint" />
            <mxPoint x="552" y="824" as="targetPoint" />
          </mxGeometry>
        </mxCell>
        <mxCell id="_aaC7rVK04lNIlgJAhn6-108" value="" style="endArrow=open;endFill=1;endSize=12;html=1;rounded=0;fontSize=30;entryX=0.5;entryY=0;entryDx=0;entryDy=0;labelBackgroundColor=none;fontColor=default;fontFamily=GOST type B;fontStyle=2" parent="1" target="_aaC7rVK04lNIlgJAhn6-32" edge="1">
          <mxGeometry width="160" relative="1" as="geometry">
            <mxPoint x="752" y="550" as="sourcePoint" />
            <mxPoint x="767" y="664" as="targetPoint" />
          </mxGeometry>
        </mxCell>
        <mxCell id="_aaC7rVK04lNIlgJAhn6-109" value="" style="endArrow=open;endFill=1;endSize=12;html=1;rounded=0;fontSize=30;entryX=0.774;entryY=-0.001;entryDx=0;entryDy=0;entryPerimeter=0;labelBackgroundColor=none;fontColor=default;fontFamily=GOST type B;fontStyle=2" parent="1" target="_aaC7rVK04lNIlgJAhn6-32" edge="1">
          <mxGeometry width="160" relative="1" as="geometry">
            <mxPoint x="862" y="610" as="sourcePoint" />
            <mxPoint x="861" y="724" as="targetPoint" />
          </mxGeometry>
        </mxCell>
        <mxCell id="_aaC7rVK04lNIlgJAhn6-110" value="" style="endArrow=open;endFill=1;endSize=12;html=1;rounded=0;fontSize=30;labelBackgroundColor=none;fontColor=default;fontFamily=GOST type B;fontStyle=2" parent="1" edge="1">
          <mxGeometry width="160" relative="1" as="geometry">
            <mxPoint x="392" y="1284" as="sourcePoint" />
            <mxPoint x="1396" y="1284" as="targetPoint" />
          </mxGeometry>
        </mxCell>
        <mxCell id="_aaC7rVK04lNIlgJAhn6-111" value="" style="endArrow=open;endFill=1;endSize=12;html=1;rounded=0;fontSize=30;labelBackgroundColor=none;fontColor=default;fontFamily=GOST type B;fontStyle=2" parent="1" edge="1">
          <mxGeometry width="160" relative="1" as="geometry">
            <mxPoint x="1552" y="480" as="sourcePoint" />
            <mxPoint x="1552" y="1079" as="targetPoint" />
          </mxGeometry>
        </mxCell>
        <mxCell id="_aaC7rVK04lNIlgJAhn6-112" value="" style="endArrow=none;html=1;rounded=0;labelBackgroundColor=none;fontColor=default;fontFamily=GOST type B;fontStyle=2" parent="1" edge="1">
          <mxGeometry width="50" height="50" relative="1" as="geometry">
            <mxPoint x="392" y="1284" as="sourcePoint" />
            <mxPoint x="392" y="954" as="targetPoint" />
          </mxGeometry>
        </mxCell>
        <mxCell id="_aaC7rVK04lNIlgJAhn6-115" value="" style="endArrow=open;endFill=1;endSize=12;html=1;rounded=0;fontSize=30;entryX=0.001;entryY=0.153;entryDx=0;entryDy=0;entryPerimeter=0;labelBackgroundColor=none;fontColor=default;fontFamily=GOST type B;fontStyle=2" parent="1" edge="1">
          <mxGeometry width="160" relative="1" as="geometry">
            <mxPoint x="1250" y="1130" as="sourcePoint" />
            <mxPoint x="1397" y="1130.01" as="targetPoint" />
          </mxGeometry>
        </mxCell>
        <mxCell id="_aaC7rVK04lNIlgJAhn6-116" value="" style="edgeStyle=isometricEdgeStyle;endArrow=none;html=1;elbow=vertical;rounded=0;labelBackgroundColor=none;fontColor=default;fontFamily=GOST type B;fontStyle=2" parent="1" edge="1">
          <mxGeometry width="50" height="100" relative="1" as="geometry">
            <mxPoint x="1170" y="840" as="sourcePoint" />
            <mxPoint x="1120" y="790" as="targetPoint" />
          </mxGeometry>
        </mxCell>
        <mxCell id="_aaC7rVK04lNIlgJAhn6-117" value="" style="edgeStyle=isometricEdgeStyle;endArrow=none;html=1;elbow=vertical;rounded=0;labelBackgroundColor=none;fontColor=default;fontFamily=GOST type B;fontStyle=2" parent="1" edge="1">
          <mxGeometry width="50" height="100" relative="1" as="geometry">
            <mxPoint x="1978" y="1160" as="sourcePoint" />
            <mxPoint x="1928" y="1110" as="targetPoint" />
          </mxGeometry>
        </mxCell>
        <mxCell id="_aaC7rVK04lNIlgJAhn6-121" value="" style="edgeStyle=isometricEdgeStyle;endArrow=none;html=1;elbow=vertical;rounded=0;labelBackgroundColor=none;fontColor=default;fontFamily=GOST type B;fontStyle=2" parent="1" edge="1">
          <mxGeometry width="50" height="100" relative="1" as="geometry">
            <mxPoint x="2218" y="1564" as="sourcePoint" />
            <mxPoint x="2168" y="1514" as="targetPoint" />
          </mxGeometry>
        </mxCell>
        <mxCell id="_aaC7rVK04lNIlgJAhn6-122" value="" style="line;strokeWidth=2;html=1;labelBackgroundColor=none;fontFamily=GOST type B;fontStyle=2" parent="1" vertex="1">
          <mxGeometry x="80" y="2314.89" width="3200.26" height="10" as="geometry" />
        </mxCell>
        <mxCell id="_aaC7rVK04lNIlgJAhn6-123" value="" style="line;strokeWidth=2;html=1;labelBackgroundColor=none;fontFamily=GOST type B;fontStyle=2" parent="1" vertex="1">
          <mxGeometry x="80.35" y="15.69" width="3199.91" height="10" as="geometry" />
        </mxCell>
        <mxCell id="_aaC7rVK04lNIlgJAhn6-124" value="" style="line;strokeWidth=2;direction=south;html=1;labelBackgroundColor=none;fontFamily=GOST type B;fontStyle=2" parent="1" vertex="1">
          <mxGeometry x="3275.13" y="20" width="7.87" height="2300.01" as="geometry" />
        </mxCell>
        <mxCell id="_aaC7rVK04lNIlgJAhn6-125" value="" style="line;strokeWidth=2;direction=south;html=1;labelBackgroundColor=none;fontFamily=GOST type B;fontStyle=2" parent="1" vertex="1">
          <mxGeometry x="76.13" y="20" width="7.87" height="2300" as="geometry" />
        </mxCell>
        <mxCell id="_aaC7rVK04lNIlgJAhn6-153" value="" style="group;labelBackgroundColor=none;fontFamily=GOST type B;fontStyle=2" parent="1" vertex="1" connectable="0">
          <mxGeometry x="2540" y="2100" width="740" height="238" as="geometry" />
        </mxCell>
        <mxCell id="_aaC7rVK04lNIlgJAhn6-126" value="" style="endArrow=none;html=1;rounded=0;labelBackgroundColor=none;fontColor=default;fontFamily=GOST type B;fontStyle=2" parent="_aaC7rVK04lNIlgJAhn6-153" edge="1">
          <mxGeometry width="50" height="50" relative="1" as="geometry">
            <mxPoint y="220" as="sourcePoint" />
            <mxPoint as="targetPoint" />
          </mxGeometry>
        </mxCell>
        <mxCell id="_aaC7rVK04lNIlgJAhn6-127" value="" style="endArrow=none;html=1;rounded=0;entryX=0.904;entryY=0.618;entryDx=0;entryDy=0;entryPerimeter=0;labelBackgroundColor=none;fontColor=default;fontFamily=GOST type B;fontStyle=2" parent="_aaC7rVK04lNIlgJAhn6-153" target="_aaC7rVK04lNIlgJAhn6-124" edge="1">
          <mxGeometry width="50" height="50" relative="1" as="geometry">
            <mxPoint as="sourcePoint" />
            <mxPoint x="730" as="targetPoint" />
          </mxGeometry>
        </mxCell>
        <mxCell id="_aaC7rVK04lNIlgJAhn6-128" value="" style="endArrow=none;html=1;rounded=0;labelBackgroundColor=none;fontColor=default;fontFamily=GOST type B;fontStyle=2" parent="_aaC7rVK04lNIlgJAhn6-153" edge="1">
          <mxGeometry width="50" height="50" relative="1" as="geometry">
            <mxPoint x="540" y="220.01000000000022" as="sourcePoint" />
            <mxPoint x="540" y="60.01000000000022" as="targetPoint" />
          </mxGeometry>
        </mxCell>
        <mxCell id="_aaC7rVK04lNIlgJAhn6-129" value="" style="endArrow=none;html=1;rounded=0;labelBackgroundColor=none;fontColor=default;fontFamily=GOST type B;fontStyle=2" parent="_aaC7rVK04lNIlgJAhn6-153" edge="1">
          <mxGeometry width="50" height="50" relative="1" as="geometry">
            <mxPoint x="260" y="220" as="sourcePoint" />
            <mxPoint x="260" as="targetPoint" />
          </mxGeometry>
        </mxCell>
        <mxCell id="_aaC7rVK04lNIlgJAhn6-130" value="" style="endArrow=none;html=1;rounded=0;labelBackgroundColor=none;fontColor=default;fontFamily=GOST type B;fontStyle=2" parent="_aaC7rVK04lNIlgJAhn6-153" edge="1">
          <mxGeometry width="50" height="50" relative="1" as="geometry">
            <mxPoint x="220" y="220" as="sourcePoint" />
            <mxPoint x="220" as="targetPoint" />
          </mxGeometry>
        </mxCell>
        <mxCell id="_aaC7rVK04lNIlgJAhn6-131" value="" style="endArrow=none;html=1;rounded=0;labelBackgroundColor=none;fontColor=default;fontFamily=GOST type B;fontStyle=2" parent="_aaC7rVK04lNIlgJAhn6-153" edge="1">
          <mxGeometry width="50" height="50" relative="1" as="geometry">
            <mxPoint x="160" y="220.01000000000022" as="sourcePoint" />
            <mxPoint x="160" y="0.010000000000218279" as="targetPoint" />
          </mxGeometry>
        </mxCell>
        <mxCell id="_aaC7rVK04lNIlgJAhn6-132" value="" style="endArrow=none;html=1;rounded=0;labelBackgroundColor=none;fontColor=default;fontFamily=GOST type B;fontStyle=2" parent="_aaC7rVK04lNIlgJAhn6-153" edge="1">
          <mxGeometry width="50" height="50" relative="1" as="geometry">
            <mxPoint x="66.82999999999993" y="220.01000000000022" as="sourcePoint" />
            <mxPoint x="66.82999999999993" y="0.010000000000218279" as="targetPoint" />
          </mxGeometry>
        </mxCell>
        <mxCell id="_aaC7rVK04lNIlgJAhn6-133" value="" style="endArrow=none;html=1;rounded=0;labelBackgroundColor=none;fontColor=default;fontFamily=GOST type B;fontStyle=2" parent="_aaC7rVK04lNIlgJAhn6-153" edge="1">
          <mxGeometry width="50" height="50" relative="1" as="geometry">
            <mxPoint x="23" y="100" as="sourcePoint" />
            <mxPoint x="23" as="targetPoint" />
          </mxGeometry>
        </mxCell>
        <mxCell id="_aaC7rVK04lNIlgJAhn6-134" value="" style="endArrow=none;html=1;rounded=0;labelBackgroundColor=none;fontColor=default;fontFamily=GOST type B;fontStyle=2" parent="_aaC7rVK04lNIlgJAhn6-153" edge="1">
          <mxGeometry width="50" height="50" relative="1" as="geometry">
            <mxPoint x="260" y="20" as="sourcePoint" />
            <mxPoint y="20" as="targetPoint" />
          </mxGeometry>
        </mxCell>
        <mxCell id="_aaC7rVK04lNIlgJAhn6-135" value="" style="endArrow=none;html=1;rounded=0;labelBackgroundColor=none;fontColor=default;fontFamily=GOST type B;fontStyle=2" parent="_aaC7rVK04lNIlgJAhn6-153" edge="1">
          <mxGeometry width="50" height="50" relative="1" as="geometry">
            <mxPoint x="260" y="40" as="sourcePoint" />
            <mxPoint y="40" as="targetPoint" />
          </mxGeometry>
        </mxCell>
        <mxCell id="_aaC7rVK04lNIlgJAhn6-136" value="" style="endArrow=none;html=1;rounded=0;labelBackgroundColor=none;fontColor=default;fontFamily=GOST type B;fontStyle=2" parent="_aaC7rVK04lNIlgJAhn6-153" edge="1">
          <mxGeometry width="50" height="50" relative="1" as="geometry">
            <mxPoint x="260" y="60" as="sourcePoint" />
            <mxPoint y="60" as="targetPoint" />
          </mxGeometry>
        </mxCell>
        <mxCell id="_aaC7rVK04lNIlgJAhn6-137" value="" style="endArrow=none;html=1;rounded=0;fontFamily=GOST type B;labelBackgroundColor=none;fontColor=default;fontStyle=2" parent="_aaC7rVK04lNIlgJAhn6-153" edge="1">
          <mxGeometry width="50" height="50" relative="1" as="geometry">
            <mxPoint x="260" y="80" as="sourcePoint" />
            <mxPoint y="80" as="targetPoint" />
          </mxGeometry>
        </mxCell>
        <mxCell id="_aaC7rVK04lNIlgJAhn6-138" value="" style="endArrow=none;html=1;rounded=0;fontFamily=GOST type B;labelBackgroundColor=none;fontColor=default;fontStyle=2" parent="_aaC7rVK04lNIlgJAhn6-153" edge="1">
          <mxGeometry width="50" height="50" relative="1" as="geometry">
            <mxPoint x="260" y="100" as="sourcePoint" />
            <mxPoint y="100" as="targetPoint" />
          </mxGeometry>
        </mxCell>
        <mxCell id="_aaC7rVK04lNIlgJAhn6-139" value="" style="endArrow=none;html=1;rounded=0;fontFamily=GOST type B;labelBackgroundColor=none;fontColor=default;fontStyle=2" parent="_aaC7rVK04lNIlgJAhn6-153" edge="1">
          <mxGeometry width="50" height="50" relative="1" as="geometry">
            <mxPoint x="260" y="120" as="sourcePoint" />
            <mxPoint y="120" as="targetPoint" />
          </mxGeometry>
        </mxCell>
        <mxCell id="_aaC7rVK04lNIlgJAhn6-140" value="" style="endArrow=none;html=1;rounded=0;fontFamily=GOST type B;labelBackgroundColor=none;fontColor=default;fontStyle=2" parent="_aaC7rVK04lNIlgJAhn6-153" edge="1">
          <mxGeometry width="50" height="50" relative="1" as="geometry">
            <mxPoint x="260" y="140" as="sourcePoint" />
            <mxPoint y="140" as="targetPoint" />
          </mxGeometry>
        </mxCell>
        <mxCell id="_aaC7rVK04lNIlgJAhn6-141" value="" style="endArrow=none;html=1;rounded=0;fontFamily=GOST type B;labelBackgroundColor=none;fontColor=default;fontStyle=2" parent="_aaC7rVK04lNIlgJAhn6-153" edge="1">
          <mxGeometry width="50" height="50" relative="1" as="geometry">
            <mxPoint x="260" y="160" as="sourcePoint" />
            <mxPoint y="160" as="targetPoint" />
          </mxGeometry>
        </mxCell>
        <mxCell id="_aaC7rVK04lNIlgJAhn6-142" value="" style="endArrow=none;html=1;rounded=0;fontFamily=GOST type B;labelBackgroundColor=none;fontColor=default;fontStyle=2" parent="_aaC7rVK04lNIlgJAhn6-153" edge="1">
          <mxGeometry width="50" height="50" relative="1" as="geometry">
            <mxPoint x="260" y="180" as="sourcePoint" />
            <mxPoint y="180" as="targetPoint" />
          </mxGeometry>
        </mxCell>
        <mxCell id="_aaC7rVK04lNIlgJAhn6-143" value="" style="endArrow=none;html=1;rounded=0;fontFamily=GOST type B;labelBackgroundColor=none;fontColor=default;fontStyle=2" parent="_aaC7rVK04lNIlgJAhn6-153" edge="1">
          <mxGeometry width="50" height="50" relative="1" as="geometry">
            <mxPoint x="260" y="200" as="sourcePoint" />
            <mxPoint y="200" as="targetPoint" />
          </mxGeometry>
        </mxCell>
        <mxCell id="_aaC7rVK04lNIlgJAhn6-144" value="" style="endArrow=none;html=1;rounded=0;exitX=0.93;exitY=0.476;exitDx=0;exitDy=0;exitPerimeter=0;labelBackgroundColor=none;fontColor=default;fontFamily=GOST type B;fontStyle=2" parent="_aaC7rVK04lNIlgJAhn6-153" edge="1">
          <mxGeometry width="50" height="50" relative="1" as="geometry">
            <mxPoint x="739.2538800000002" y="60.00930000000017" as="sourcePoint" />
            <mxPoint x="260" y="60" as="targetPoint" />
          </mxGeometry>
        </mxCell>
        <mxCell id="_aaC7rVK04lNIlgJAhn6-145" value="" style="endArrow=none;html=1;rounded=0;exitX=0.93;exitY=0.476;exitDx=0;exitDy=0;exitPerimeter=0;labelBackgroundColor=none;fontColor=default;fontFamily=GOST type B;fontStyle=2" parent="_aaC7rVK04lNIlgJAhn6-153" edge="1">
          <mxGeometry width="50" height="50" relative="1" as="geometry">
            <mxPoint x="739.2638800000004" y="160.00930000000017" as="sourcePoint" />
            <mxPoint x="260.0100000000002" y="160" as="targetPoint" />
          </mxGeometry>
        </mxCell>
        <mxCell id="_aaC7rVK04lNIlgJAhn6-146" value="" style="endArrow=none;html=1;rounded=0;labelBackgroundColor=none;fontColor=default;fontFamily=GOST type B;fontStyle=2" parent="_aaC7rVK04lNIlgJAhn6-153" edge="1">
          <mxGeometry width="50" height="50" relative="1" as="geometry">
            <mxPoint x="740" y="80" as="sourcePoint" />
            <mxPoint x="540" y="80" as="targetPoint" />
          </mxGeometry>
        </mxCell>
        <mxCell id="_aaC7rVK04lNIlgJAhn6-147" value="" style="endArrow=none;html=1;rounded=0;labelBackgroundColor=none;fontColor=default;fontFamily=GOST type B;fontStyle=2" parent="_aaC7rVK04lNIlgJAhn6-153" edge="1">
          <mxGeometry width="50" height="50" relative="1" as="geometry">
            <mxPoint x="739.2600000000002" y="140" as="sourcePoint" />
            <mxPoint x="540" y="140" as="targetPoint" />
          </mxGeometry>
        </mxCell>
        <mxCell id="_aaC7rVK04lNIlgJAhn6-148" value="" style="endArrow=none;html=1;rounded=0;labelBackgroundColor=none;fontColor=default;fontFamily=GOST type B;fontStyle=2" parent="_aaC7rVK04lNIlgJAhn6-153" edge="1">
          <mxGeometry width="50" height="50" relative="1" as="geometry">
            <mxPoint x="560" y="140" as="sourcePoint" />
            <mxPoint x="560" y="80" as="targetPoint" />
          </mxGeometry>
        </mxCell>
        <mxCell id="_aaC7rVK04lNIlgJAhn6-149" value="" style="endArrow=none;html=1;rounded=0;labelBackgroundColor=none;fontColor=default;fontFamily=GOST type B;fontStyle=2" parent="_aaC7rVK04lNIlgJAhn6-153" edge="1">
          <mxGeometry width="50" height="50" relative="1" as="geometry">
            <mxPoint x="580" y="140" as="sourcePoint" />
            <mxPoint x="580" y="80" as="targetPoint" />
          </mxGeometry>
        </mxCell>
        <mxCell id="_aaC7rVK04lNIlgJAhn6-150" value="" style="endArrow=none;html=1;rounded=0;labelBackgroundColor=none;fontColor=default;fontFamily=GOST type B;fontStyle=2" parent="_aaC7rVK04lNIlgJAhn6-153" edge="1">
          <mxGeometry width="50" height="50" relative="1" as="geometry">
            <mxPoint x="600" y="140" as="sourcePoint" />
            <mxPoint x="600" y="60" as="targetPoint" />
          </mxGeometry>
        </mxCell>
        <mxCell id="_aaC7rVK04lNIlgJAhn6-151" value="" style="endArrow=none;html=1;rounded=0;labelBackgroundColor=none;fontColor=default;fontFamily=GOST type B;fontStyle=2" parent="_aaC7rVK04lNIlgJAhn6-153" edge="1">
          <mxGeometry width="50" height="50" relative="1" as="geometry">
            <mxPoint x="664" y="140" as="sourcePoint" />
            <mxPoint x="664" y="60" as="targetPoint" />
          </mxGeometry>
        </mxCell>
        <mxCell id="_aaC7rVK04lNIlgJAhn6-152" value="" style="endArrow=none;html=1;rounded=0;labelBackgroundColor=none;fontColor=default;fontFamily=GOST type B;fontStyle=2" parent="_aaC7rVK04lNIlgJAhn6-153" edge="1">
          <mxGeometry width="50" height="50" relative="1" as="geometry">
            <mxPoint x="620" y="160" as="sourcePoint" />
            <mxPoint x="620" y="140" as="targetPoint" />
          </mxGeometry>
        </mxCell>
        <mxCell id="_aaC7rVK04lNIlgJAhn6-154" value="&lt;font style=&quot;font-size: 10px;&quot;&gt;&lt;span&gt;Изм.&lt;/span&gt;&lt;/font&gt;" style="text;html=1;align=center;verticalAlign=middle;resizable=0;points=[];autosize=1;strokeColor=none;fillColor=none;fontFamily=GOST type B;labelBackgroundColor=none;fontStyle=2" parent="_aaC7rVK04lNIlgJAhn6-153" vertex="1">
          <mxGeometry x="-8" y="77" width="40" height="30" as="geometry" />
        </mxCell>
        <mxCell id="_aaC7rVK04lNIlgJAhn6-155" value="&lt;font size=&quot;1&quot;&gt;&lt;span style=&quot;font-size: 12px;&quot;&gt;Л.&lt;/span&gt;&lt;/font&gt;" style="text;html=1;align=center;verticalAlign=middle;resizable=0;points=[];autosize=1;strokeColor=none;fillColor=none;fontFamily=GOST type B;labelBackgroundColor=none;fontStyle=2" parent="_aaC7rVK04lNIlgJAhn6-153" vertex="1">
          <mxGeometry x="42" y="77" width="30" height="30" as="geometry" />
        </mxCell>
        <mxCell id="_aaC7rVK04lNIlgJAhn6-158" value="&lt;font&gt;&lt;span&gt;Т.Контр.&lt;/span&gt;&lt;/font&gt;" style="text;html=1;align=center;verticalAlign=middle;resizable=0;points=[];autosize=1;strokeColor=none;fillColor=none;fontFamily=GOST type B;labelBackgroundColor=none;fontStyle=2" parent="_aaC7rVK04lNIlgJAhn6-153" vertex="1">
          <mxGeometry x="-6" y="138" width="70" height="30" as="geometry" />
        </mxCell>
        <mxCell id="_aaC7rVK04lNIlgJAhn6-159" value="&lt;font&gt;&lt;span&gt;Рец&lt;/span&gt;&lt;/font&gt;." style="text;html=1;align=center;verticalAlign=middle;resizable=0;points=[];autosize=1;strokeColor=none;fillColor=none;fontFamily=GOST type B;labelBackgroundColor=none;fontStyle=2" parent="_aaC7rVK04lNIlgJAhn6-153" vertex="1">
          <mxGeometry x="-1" y="158" width="40" height="30" as="geometry" />
        </mxCell>
        <mxCell id="_aaC7rVK04lNIlgJAhn6-160" value="&lt;span&gt;&lt;font&gt;Н. контр.&lt;/font&gt;&lt;/span&gt;" style="text;html=1;align=center;verticalAlign=middle;resizable=0;points=[];autosize=1;strokeColor=none;fillColor=none;fontFamily=GOST type B;labelBackgroundColor=none;fontStyle=2" parent="_aaC7rVK04lNIlgJAhn6-153" vertex="1">
          <mxGeometry x="-3" y="178" width="70" height="30" as="geometry" />
        </mxCell>
        <mxCell id="_aaC7rVK04lNIlgJAhn6-161" value="&lt;font&gt;&lt;span&gt;Утв&lt;/span&gt;&lt;/font&gt;." style="text;html=1;align=center;verticalAlign=middle;resizable=0;points=[];autosize=1;strokeColor=none;fillColor=none;labelBackgroundColor=none;fontFamily=GOST type B;fontStyle=2" parent="_aaC7rVK04lNIlgJAhn6-153" vertex="1">
          <mxGeometry x="-6" y="197" width="50" height="30" as="geometry" />
        </mxCell>
        <mxCell id="_aaC7rVK04lNIlgJAhn6-162" value="&lt;span&gt;&lt;font&gt;№ докум.&lt;/font&gt;&lt;/span&gt;" style="text;html=1;align=center;verticalAlign=middle;resizable=0;points=[];autosize=1;strokeColor=none;fillColor=none;fontFamily=GOST type B;labelBackgroundColor=none;fontStyle=2" parent="_aaC7rVK04lNIlgJAhn6-153" vertex="1">
          <mxGeometry x="77" y="77" width="70" height="30" as="geometry" />
        </mxCell>
        <mxCell id="_aaC7rVK04lNIlgJAhn6-163" value="&lt;span&gt;Еленевич&lt;/span&gt;" style="text;html=1;align=center;verticalAlign=middle;resizable=0;points=[];autosize=1;strokeColor=none;fillColor=none;fontFamily=GOST type B;labelBackgroundColor=none;fontStyle=2" parent="_aaC7rVK04lNIlgJAhn6-153" vertex="1">
          <mxGeometry x="59" y="97" width="70" height="30" as="geometry" />
        </mxCell>
        <mxCell id="_aaC7rVK04lNIlgJAhn6-167" value="&lt;span&gt;&lt;font&gt;Писарчик&amp;nbsp; &amp;nbsp; &amp;nbsp; &amp;nbsp; &amp;nbsp; &amp;nbsp;&lt;/font&gt;&lt;/span&gt;" style="text;html=1;align=center;verticalAlign=middle;resizable=0;points=[];autosize=1;strokeColor=none;fillColor=none;fontFamily=GOST type B;labelBackgroundColor=none;fontStyle=2" parent="_aaC7rVK04lNIlgJAhn6-153" vertex="1">
          <mxGeometry x="58" y="116" width="120" height="30" as="geometry" />
        </mxCell>
        <mxCell id="_aaC7rVK04lNIlgJAhn6-169" value="&lt;span&gt;Бруй&amp;nbsp; &amp;nbsp; &amp;nbsp; &amp;nbsp; &amp;nbsp; &amp;nbsp; &amp;nbsp; &amp;nbsp; &amp;nbsp; &amp;nbsp;&lt;/span&gt;" style="text;html=1;align=center;verticalAlign=middle;resizable=0;points=[];autosize=1;strokeColor=none;fillColor=none;fontFamily=GOST type B;labelBackgroundColor=none;fontStyle=2" parent="_aaC7rVK04lNIlgJAhn6-153" vertex="1">
          <mxGeometry x="60" y="175" width="130" height="30" as="geometry" />
        </mxCell>
        <mxCell id="_aaC7rVK04lNIlgJAhn6-174" value="&lt;font&gt;&lt;span&gt;Дата&lt;/span&gt;&lt;/font&gt;" style="text;html=1;align=center;verticalAlign=middle;resizable=0;points=[];autosize=1;strokeColor=none;fillColor=none;fontFamily=GOST type B;labelBackgroundColor=none;fontStyle=2" parent="_aaC7rVK04lNIlgJAhn6-153" vertex="1">
          <mxGeometry x="215" y="77" width="50" height="30" as="geometry" />
        </mxCell>
        <mxCell id="_aaC7rVK04lNIlgJAhn6-179" value="&lt;span style=&quot;&quot;&gt;1:1&lt;/span&gt;" style="text;html=1;align=center;verticalAlign=middle;resizable=0;points=[];autosize=1;strokeColor=none;fillColor=none;labelBackgroundColor=none;fontFamily=GOST type B;fontStyle=2" parent="_aaC7rVK04lNIlgJAhn6-153" vertex="1">
          <mxGeometry x="685" y="94" width="30" height="30" as="geometry" />
        </mxCell>
        <mxCell id="_aaC7rVK04lNIlgJAhn6-182" value="&lt;span&gt;Каферда ПИКС,&lt;br&gt;&amp;nbsp;гр. 083871&lt;/span&gt;" style="text;html=1;align=center;verticalAlign=middle;resizable=0;points=[];autosize=1;strokeColor=none;fillColor=none;labelBackgroundColor=none;fontFamily=GOST type B;fontStyle=2" parent="_aaC7rVK04lNIlgJAhn6-153" vertex="1">
          <mxGeometry x="590" y="169" width="100" height="40" as="geometry" />
        </mxCell>
        <mxCell id="_aaC7rVK04lNIlgJAhn6-183" value="&lt;span style=&quot;border-color: var(--border-color);&quot;&gt;&lt;font style=&quot;border-color: var(--border-color); font-size: 20px;&quot;&gt;ГУИР.08387-09 01 01&lt;/font&gt;&lt;/span&gt;" style="text;html=1;align=center;verticalAlign=middle;resizable=0;points=[];autosize=1;strokeColor=none;fillColor=none;labelBackgroundColor=none;fontFamily=GOST type B;fontStyle=2" parent="_aaC7rVK04lNIlgJAhn6-153" vertex="1">
          <mxGeometry x="400" y="10" width="200" height="40" as="geometry" />
        </mxCell>
        <mxCell id="_aaC7rVK04lNIlgJAhn6-184" value="&lt;span&gt;&lt;font style=&quot;font-size: 20px;&quot;&gt;IDEF0 диаграмма&lt;br&gt;&amp;nbsp;декомпозиции&lt;/font&gt;&lt;/span&gt;" style="text;html=1;align=center;verticalAlign=middle;resizable=0;points=[];autosize=1;strokeColor=none;fillColor=none;labelBackgroundColor=none;fontFamily=GOST type B;fontStyle=2" parent="_aaC7rVK04lNIlgJAhn6-153" vertex="1">
          <mxGeometry x="315" y="79" width="160" height="60" as="geometry" />
        </mxCell>
        <mxCell id="_aaC7rVK04lNIlgJAhn6-186" value="&lt;span&gt;Формат А1&lt;/span&gt;" style="text;html=1;align=center;verticalAlign=middle;resizable=0;points=[];autosize=1;strokeColor=none;fillColor=none;spacing=0;labelBackgroundColor=none;fontFamily=GOST type B;fontStyle=2" parent="_aaC7rVK04lNIlgJAhn6-153" vertex="1">
          <mxGeometry x="600" y="218" width="80" height="20" as="geometry" />
        </mxCell>
        <mxCell id="MZmPPwRjX85Vww6K2f17-1" value="&lt;span style=&quot;border-color: var(--border-color);&quot;&gt;Ковалёва&lt;/span&gt;" style="text;html=1;align=center;verticalAlign=middle;resizable=0;points=[];autosize=1;strokeColor=none;fillColor=none;fontFamily=GOST type B;labelBackgroundColor=none;fontStyle=2" parent="_aaC7rVK04lNIlgJAhn6-153" vertex="1">
          <mxGeometry x="59" y="156" width="70" height="30" as="geometry" />
        </mxCell>
        <mxCell id="_aaC7rVK04lNIlgJAhn6-156" value="&lt;font style=&quot;font-size: 12px;&quot;&gt;&lt;font style=&quot;font-size: 12px;&quot;&gt;&lt;span&gt;Разраб&lt;/span&gt;&lt;/font&gt;.&lt;/font&gt;" style="text;html=1;align=center;verticalAlign=middle;resizable=0;points=[];autosize=1;strokeColor=none;fillColor=none;fontFamily=GOST type B;labelBackgroundColor=none;fontStyle=2" parent="1" vertex="1">
          <mxGeometry x="2538" y="2198" width="60" height="30" as="geometry" />
        </mxCell>
        <mxCell id="_aaC7rVK04lNIlgJAhn6-157" value="&lt;span&gt;&lt;font&gt;Пров.&lt;/font&gt;&lt;/span&gt;" style="text;html=1;align=center;verticalAlign=middle;resizable=0;points=[];autosize=1;strokeColor=none;fillColor=none;fontFamily=GOST type B;labelBackgroundColor=none;fontStyle=2" parent="1" vertex="1">
          <mxGeometry x="2537" y="2218" width="50" height="30" as="geometry" />
        </mxCell>
        <mxCell id="_aaC7rVK04lNIlgJAhn6-168" value="&lt;span&gt;&lt;font&gt;Писарчик&amp;nbsp; &amp;nbsp; &amp;nbsp; &amp;nbsp;&amp;nbsp;&lt;/font&gt;&lt;/span&gt;" style="text;html=1;align=center;verticalAlign=middle;resizable=0;points=[];autosize=1;strokeColor=none;fillColor=none;fontFamily=GOST type B;labelBackgroundColor=none;fontStyle=2" parent="1" vertex="1">
          <mxGeometry x="2601" y="2236" width="100" height="30" as="geometry" />
        </mxCell>
        <mxCell id="_aaC7rVK04lNIlgJAhn6-172" value="&lt;span&gt;Пискун&amp;nbsp; &amp;nbsp; &amp;nbsp; &amp;nbsp; &amp;nbsp; &amp;nbsp; &amp;nbsp; &amp;nbsp;&lt;/span&gt;" style="text;html=1;align=center;verticalAlign=middle;resizable=0;points=[];autosize=1;strokeColor=none;fillColor=none;fontFamily=GOST type B;labelBackgroundColor=none;fontStyle=2" parent="1" vertex="1">
          <mxGeometry x="2596" y="2296" width="130" height="30" as="geometry" />
        </mxCell>
        <mxCell id="_aaC7rVK04lNIlgJAhn6-173" value="&lt;span&gt;&lt;font&gt;Подп&lt;/font&gt;&lt;/span&gt;." style="text;html=1;align=center;verticalAlign=middle;resizable=0;points=[];autosize=1;strokeColor=none;fillColor=none;fontFamily=GOST type B;labelBackgroundColor=none;fontStyle=2" parent="1" vertex="1">
          <mxGeometry x="2705" y="2177" width="50" height="30" as="geometry" />
        </mxCell>
        <mxCell id="_aaC7rVK04lNIlgJAhn6-175" value="&lt;span&gt;Лит.&lt;/span&gt;" style="text;html=1;align=center;verticalAlign=middle;resizable=0;points=[];autosize=1;strokeColor=none;fillColor=none;labelBackgroundColor=none;fontFamily=GOST type B;fontStyle=2" parent="1" vertex="1">
          <mxGeometry x="3085" y="2158" width="50" height="30" as="geometry" />
        </mxCell>
        <mxCell id="_aaC7rVK04lNIlgJAhn6-176" value="&lt;span&gt;&lt;font&gt;Масса&lt;/font&gt;&lt;/span&gt;" style="text;html=1;align=center;verticalAlign=middle;resizable=0;points=[];autosize=1;strokeColor=none;fillColor=none;labelBackgroundColor=none;fontFamily=GOST type B;fontStyle=2" parent="1" vertex="1">
          <mxGeometry x="3145" y="2158" width="50" height="30" as="geometry" />
        </mxCell>
        <mxCell id="_aaC7rVK04lNIlgJAhn6-177" value="&lt;span&gt;Масштаб&lt;/span&gt;" style="text;html=1;align=center;verticalAlign=middle;resizable=0;points=[];autosize=1;strokeColor=none;fillColor=none;labelBackgroundColor=none;fontFamily=GOST type B;fontStyle=2" parent="1" vertex="1">
          <mxGeometry x="3205" y="2158" width="70" height="30" as="geometry" />
        </mxCell>
        <mxCell id="_aaC7rVK04lNIlgJAhn6-178" value="&lt;span&gt;Т&lt;/span&gt;" style="text;html=1;align=center;verticalAlign=middle;resizable=0;points=[];autosize=1;strokeColor=none;fillColor=none;labelBackgroundColor=none;fontFamily=GOST type B;fontStyle=2" parent="1" vertex="1">
          <mxGeometry x="3094" y="2194" width="30" height="30" as="geometry" />
        </mxCell>
        <mxCell id="_aaC7rVK04lNIlgJAhn6-180" value="&lt;span&gt;Лист&lt;/span&gt;" style="text;html=1;align=center;verticalAlign=middle;resizable=0;points=[];autosize=1;strokeColor=none;fillColor=none;labelBackgroundColor=none;fontFamily=GOST type B;fontStyle=2" parent="1" vertex="1">
          <mxGeometry x="3085" y="2238" width="50" height="30" as="geometry" />
        </mxCell>
        <mxCell id="_aaC7rVK04lNIlgJAhn6-181" value="&lt;span&gt;Листов&lt;/span&gt;" style="text;html=1;align=center;verticalAlign=middle;resizable=0;points=[];autosize=1;strokeColor=none;fillColor=none;labelBackgroundColor=none;fontFamily=GOST type B;fontStyle=2" parent="1" vertex="1">
          <mxGeometry x="3187" y="2236" width="60" height="30" as="geometry" />
        </mxCell>
        <mxCell id="rzWsVcKS7fs4n2y84Gt_-8" value="Пользователь" style="text;html=1;strokeColor=none;fillColor=none;align=center;verticalAlign=middle;whiteSpace=wrap;rounded=0;fontSize=30;labelBackgroundColor=none;fontFamily=GOST type B;fontStyle=2" parent="1" vertex="1">
          <mxGeometry x="1391" y="1940" width="210" height="30" as="geometry" />
        </mxCell>
        <mxCell id="MZmPPwRjX85Vww6K2f17-4" value="&lt;span&gt;&lt;font style=&quot;font-size: 20px;&quot;&gt;ГУИР.08387-09 01 01&lt;/font&gt;&lt;/span&gt;" style="text;html=1;align=center;verticalAlign=middle;resizable=0;points=[];autosize=1;strokeColor=none;fillColor=none;flipH=1;flipV=1;rotation=180;fontFamily=GOST type B;fontStyle=2" parent="1" vertex="1">
          <mxGeometry x="119" y="30" width="200" height="40" as="geometry" />
        </mxCell>
        <mxCell id="PhWdE2FDrW9K7MBiUAPL-5" value="" style="endArrow=none;html=1;rounded=0;labelBackgroundColor=none;fontColor=default;fontFamily=GOST type B;fontStyle=2" parent="1" edge="1">
          <mxGeometry width="50" height="50" relative="1" as="geometry">
            <mxPoint x="2130" y="1400" as="sourcePoint" />
            <mxPoint x="2130" y="1160" as="targetPoint" />
          </mxGeometry>
        </mxCell>
        <mxCell id="PhWdE2FDrW9K7MBiUAPL-6" value="" style="endArrow=open;endFill=1;endSize=12;html=1;rounded=0;fontSize=30;labelBackgroundColor=none;fontColor=default;fontFamily=GOST type B;fontStyle=2" parent="1" edge="1">
          <mxGeometry width="160" relative="1" as="geometry">
            <mxPoint x="1495" y="1930" as="sourcePoint" />
            <mxPoint x="1495" y="1311" as="targetPoint" />
          </mxGeometry>
        </mxCell>
        <mxCell id="PhWdE2FDrW9K7MBiUAPL-9" value="" style="endArrow=open;endFill=1;endSize=12;html=1;rounded=0;fontSize=30;labelBackgroundColor=none;fontColor=default;fontFamily=GOST type B;fontStyle=2" parent="1" edge="1">
          <mxGeometry width="160" relative="1" as="geometry">
            <mxPoint x="1696" y="1780" as="sourcePoint" />
            <mxPoint x="1695.67" y="1311" as="targetPoint" />
          </mxGeometry>
        </mxCell>
        <mxCell id="PhWdE2FDrW9K7MBiUAPL-10" value="" style="endArrow=open;endFill=1;endSize=12;html=1;rounded=0;fontSize=30;labelBackgroundColor=none;fontColor=default;fontFamily=GOST type B;fontStyle=2" parent="1" edge="1">
          <mxGeometry width="160" relative="1" as="geometry">
            <mxPoint x="770" y="1884" as="sourcePoint" />
            <mxPoint x="770" y="979" as="targetPoint" />
          </mxGeometry>
        </mxCell>
        <mxCell id="PhWdE2FDrW9K7MBiUAPL-11" value="" style="endArrow=open;endFill=1;endSize=12;html=1;rounded=0;fontSize=30;labelBackgroundColor=none;fontColor=default;fontFamily=GOST type B;fontStyle=2" parent="1" edge="1">
          <mxGeometry width="160" relative="1" as="geometry">
            <mxPoint x="660" y="2014" as="sourcePoint" />
            <mxPoint x="657" y="979" as="targetPoint" />
          </mxGeometry>
        </mxCell>
        <mxCell id="PhWdE2FDrW9K7MBiUAPL-13" value="" style="endArrow=open;endFill=1;endSize=12;html=1;rounded=0;fontSize=30;exitX=0.833;exitY=0.333;exitDx=0;exitDy=0;entryX=0.001;entryY=0.153;entryDx=0;entryDy=0;entryPerimeter=0;labelBackgroundColor=none;fontColor=default;exitPerimeter=0;fontFamily=GOST type B;fontStyle=2" parent="1" edge="1">
          <mxGeometry width="160" relative="1" as="geometry">
            <mxPoint x="1819.62" y="657.82" as="sourcePoint" />
            <mxPoint x="2218" y="657.82" as="targetPoint" />
          </mxGeometry>
        </mxCell>
        <mxCell id="PhWdE2FDrW9K7MBiUAPL-14" value="" style="endArrow=open;endFill=1;endSize=12;html=1;rounded=0;fontSize=30;exitX=0.833;exitY=0.333;exitDx=0;exitDy=0;entryX=0.001;entryY=0.153;entryDx=0;entryDy=0;entryPerimeter=0;labelBackgroundColor=none;fontColor=default;exitPerimeter=0;fontFamily=GOST type B;fontStyle=2" parent="1" edge="1">
          <mxGeometry width="160" relative="1" as="geometry">
            <mxPoint x="1819.62" y="478.00000000000006" as="sourcePoint" />
            <mxPoint x="2218" y="478.00000000000006" as="targetPoint" />
          </mxGeometry>
        </mxCell>
        <mxCell id="PhWdE2FDrW9K7MBiUAPL-16" value="" style="endArrow=open;endFill=1;endSize=12;html=1;rounded=0;fontSize=30;exitX=0.833;exitY=0.333;exitDx=0;exitDy=0;entryX=0.001;entryY=0.153;entryDx=0;entryDy=0;entryPerimeter=0;labelBackgroundColor=none;fontColor=default;exitPerimeter=0;fontFamily=GOST type B;fontStyle=2" parent="1" edge="1">
          <mxGeometry width="160" relative="1" as="geometry">
            <mxPoint x="2728" y="657.63" as="sourcePoint" />
            <mxPoint x="3126.38" y="657.63" as="targetPoint" />
          </mxGeometry>
        </mxCell>
        <mxCell id="PhWdE2FDrW9K7MBiUAPL-17" value="" style="endArrow=open;endFill=1;endSize=12;html=1;rounded=0;fontSize=30;exitX=0.833;exitY=0.333;exitDx=0;exitDy=0;entryX=0.001;entryY=0.153;entryDx=0;entryDy=0;entryPerimeter=0;labelBackgroundColor=none;fontColor=default;exitPerimeter=0;fontFamily=GOST type B;fontStyle=2" parent="1" edge="1">
          <mxGeometry width="160" relative="1" as="geometry">
            <mxPoint x="2728" y="558" as="sourcePoint" />
            <mxPoint x="3126.38" y="558" as="targetPoint" />
          </mxGeometry>
        </mxCell>
        <mxCell id="PhWdE2FDrW9K7MBiUAPL-19" value="" style="endArrow=open;endFill=1;endSize=12;html=1;rounded=0;fontSize=30;entryX=0.001;entryY=0.153;entryDx=0;entryDy=0;entryPerimeter=0;labelBackgroundColor=none;fontColor=default;fontFamily=GOST type B;fontStyle=2" parent="1" edge="1">
          <mxGeometry width="160" relative="1" as="geometry">
            <mxPoint x="2381" y="898" as="sourcePoint" />
            <mxPoint x="2380.89" y="678" as="targetPoint" />
          </mxGeometry>
        </mxCell>
        <mxCell id="PhWdE2FDrW9K7MBiUAPL-21" value="" style="endArrow=open;endFill=1;endSize=12;html=1;rounded=0;fontSize=30;entryX=0.001;entryY=0.153;entryDx=0;entryDy=0;entryPerimeter=0;labelBackgroundColor=none;fontColor=default;fontFamily=GOST type B;fontStyle=2" parent="1" edge="1">
          <mxGeometry width="160" relative="1" as="geometry">
            <mxPoint x="2627.58" y="898" as="sourcePoint" />
            <mxPoint x="2627.47" y="678" as="targetPoint" />
          </mxGeometry>
        </mxCell>
        <mxCell id="PhWdE2FDrW9K7MBiUAPL-23" value="" style="endArrow=open;endFill=1;endSize=12;html=1;rounded=0;fontSize=30;entryX=0.001;entryY=0.153;entryDx=0;entryDy=0;entryPerimeter=0;labelBackgroundColor=none;fontColor=default;fontFamily=GOST type B;fontStyle=2" parent="1" edge="1">
          <mxGeometry width="160" relative="1" as="geometry">
            <mxPoint x="2554" y="2014" as="sourcePoint" />
            <mxPoint x="2554" y="1579" as="targetPoint" />
          </mxGeometry>
        </mxCell>
        <mxCell id="PhWdE2FDrW9K7MBiUAPL-24" value="" style="endArrow=open;endFill=1;endSize=12;html=1;rounded=0;fontSize=30;entryX=0.001;entryY=0.153;entryDx=0;entryDy=0;entryPerimeter=0;labelBackgroundColor=none;fontColor=default;fontFamily=GOST type B;fontStyle=2" parent="1" edge="1">
          <mxGeometry width="160" relative="1" as="geometry">
            <mxPoint x="2494" y="1884" as="sourcePoint" />
            <mxPoint x="2494" y="1579" as="targetPoint" />
          </mxGeometry>
        </mxCell>
        <mxCell id="PhWdE2FDrW9K7MBiUAPL-25" value="" style="endArrow=open;endFill=1;endSize=12;html=1;rounded=0;fontSize=30;entryX=0.001;entryY=0.153;entryDx=0;entryDy=0;entryPerimeter=0;labelBackgroundColor=none;fontColor=default;fontFamily=GOST type B;fontStyle=2" parent="1" edge="1">
          <mxGeometry width="160" relative="1" as="geometry">
            <mxPoint x="2434" y="1710" as="sourcePoint" />
            <mxPoint x="2434.0499999999997" y="1579" as="targetPoint" />
          </mxGeometry>
        </mxCell>
        <mxCell id="PhWdE2FDrW9K7MBiUAPL-26" value="" style="endArrow=open;endFill=1;endSize=12;html=1;rounded=0;fontSize=30;exitX=0.833;exitY=0.333;exitDx=0;exitDy=0;entryX=0.001;entryY=0.153;entryDx=0;entryDy=0;entryPerimeter=0;labelBackgroundColor=none;fontColor=default;exitPerimeter=0;fontFamily=GOST type B;fontStyle=2" parent="1" edge="1">
          <mxGeometry width="160" relative="1" as="geometry">
            <mxPoint x="2704" y="1563.5" as="sourcePoint" />
            <mxPoint x="3102.38" y="1563.5" as="targetPoint" />
          </mxGeometry>
        </mxCell>
        <mxCell id="PhWdE2FDrW9K7MBiUAPL-27" value="" style="endArrow=open;endFill=1;endSize=12;html=1;rounded=0;fontSize=30;exitX=0.833;exitY=0.333;exitDx=0;exitDy=0;entryX=0.001;entryY=0.153;entryDx=0;entryDy=0;entryPerimeter=0;labelBackgroundColor=none;fontColor=default;exitPerimeter=0;fontFamily=GOST type B;fontStyle=2" parent="1" edge="1">
          <mxGeometry width="160" relative="1" as="geometry">
            <mxPoint x="2704" y="1477.8" as="sourcePoint" />
            <mxPoint x="3102.38" y="1477.8" as="targetPoint" />
          </mxGeometry>
        </mxCell>
        <mxCell id="PhWdE2FDrW9K7MBiUAPL-29" value="" style="endArrow=open;endFill=1;endSize=12;html=1;rounded=0;fontSize=30;entryX=0.5;entryY=0;entryDx=0;entryDy=0;labelBackgroundColor=none;fontColor=default;fontFamily=GOST type B;fontStyle=2" parent="1" edge="1">
          <mxGeometry width="160" relative="1" as="geometry">
            <mxPoint x="2308" y="229" as="sourcePoint" />
            <mxPoint x="2308" y="408" as="targetPoint" />
          </mxGeometry>
        </mxCell>
        <mxCell id="PhWdE2FDrW9K7MBiUAPL-31" value="" style="endArrow=open;endFill=1;endSize=12;html=1;rounded=0;fontSize=30;entryX=0.5;entryY=0;entryDx=0;entryDy=0;labelBackgroundColor=none;fontColor=default;fontFamily=GOST type B;fontStyle=2" parent="1" edge="1">
          <mxGeometry width="160" relative="1" as="geometry">
            <mxPoint x="2492" y="229" as="sourcePoint" />
            <mxPoint x="2492" y="408" as="targetPoint" />
          </mxGeometry>
        </mxCell>
        <mxCell id="PhWdE2FDrW9K7MBiUAPL-32" value="" style="endArrow=open;endFill=1;endSize=12;html=1;rounded=0;fontSize=30;entryX=0.001;entryY=0.153;entryDx=0;entryDy=0;entryPerimeter=0;labelBackgroundColor=none;fontColor=default;fontFamily=GOST type B;fontStyle=2" parent="1" edge="1">
          <mxGeometry width="160" relative="1" as="geometry">
            <mxPoint x="2020" y="1564" as="sourcePoint" />
            <mxPoint x="2352" y="1563.5" as="targetPoint" />
          </mxGeometry>
        </mxCell>
        <mxCell id="PhWdE2FDrW9K7MBiUAPL-35" value="" style="endArrow=none;html=1;rounded=0;labelBackgroundColor=none;fontColor=default;fontFamily=GOST type B;fontStyle=2" parent="1" edge="1">
          <mxGeometry width="50" height="50" relative="1" as="geometry">
            <mxPoint x="1777" y="1160" as="sourcePoint" />
            <mxPoint x="2130" y="1160" as="targetPoint" />
          </mxGeometry>
        </mxCell>
        <mxCell id="PhWdE2FDrW9K7MBiUAPL-36" value="" style="endArrow=open;endFill=1;endSize=12;html=1;rounded=0;fontSize=30;entryX=0.001;entryY=0.153;entryDx=0;entryDy=0;entryPerimeter=0;labelBackgroundColor=none;fontColor=default;fontFamily=GOST type B;fontStyle=2" parent="1" edge="1">
          <mxGeometry width="160" relative="1" as="geometry">
            <mxPoint x="2130" y="1400" as="sourcePoint" />
            <mxPoint x="2355" y="1399" as="targetPoint" />
          </mxGeometry>
        </mxCell>
        <mxCell id="PhWdE2FDrW9K7MBiUAPL-40" value="" style="endArrow=none;html=1;rounded=0;labelBackgroundColor=none;fontColor=default;fontFamily=GOST type B;fontStyle=2" parent="1" edge="1">
          <mxGeometry width="50" height="50" relative="1" as="geometry">
            <mxPoint x="1250" y="1130" as="sourcePoint" />
            <mxPoint x="1250" y="840" as="targetPoint" />
          </mxGeometry>
        </mxCell>
        <mxCell id="PhWdE2FDrW9K7MBiUAPL-41" value="" style="endArrow=none;html=1;rounded=0;labelBackgroundColor=none;fontColor=default;fontFamily=GOST type B;fontStyle=2" parent="1" edge="1">
          <mxGeometry width="50" height="50" relative="1" as="geometry">
            <mxPoint x="952" y="840" as="sourcePoint" />
            <mxPoint x="1250" y="840" as="targetPoint" />
          </mxGeometry>
        </mxCell>
        <object placeholder="BlueprintName" placeholders="1" id="6mPW7PlYbqCkbLFO1wRe-1">
          <mxCell style="rounded=0;whiteSpace=wrap;html=1;strokeWidth=1;fillColor=none;strokeColor=#000000;fontFamily=GOST type A;fontSize=24;rotation=-180;fontStyle=2" parent="1" vertex="1">
            <mxGeometry x="80.12999999999965" y="20.439999999999998" width="275.59" height="55.117999999999995" as="geometry" />
          </mxCell>
        </object>
      </root>
    </mxGraphModel>
  </diagram>
</mxfile>
